<svg version="1.1" id="Layer_1" xmlns="http://www.w3.org/2000/svg" xmlns:xlink="http://www.w3.org/1999/xlink" x="0px" y="0px"
	 width="100%" viewBox="0 0 640 480" enable-background="new 0 0 640 480" xml:space="preserve">
<path fill="#000000" opacity="1.000000" stroke="none" 
	d="
M529.422302,403.567566 
	C532.252380,402.956207 534.820557,401.030487 536.751465,404.602661 
	C537.588440,406.151001 539.088684,405.139008 540.320801,404.687775 
	C542.348145,403.945374 544.349792,403.054413 546.442749,402.583282 
	C555.808472,400.475067 563.097412,404.974121 565.190247,414.365479 
	C567.095459,422.915100 565.685059,431.640289 566.089844,440.276245 
	C566.189209,442.396149 565.796265,444.745209 568.620239,445.610962 
	C571.912476,446.620300 574.546936,444.833069 574.564636,441.060333 
	C574.633972,426.233337 574.624084,411.404236 574.426758,396.578827 
	C574.377380,392.871399 574.639404,388.551697 569.248291,388.153229 
	C569.820923,385.054413 571.937866,384.930359 573.601013,384.760559 
	C578.633301,384.246796 584.346375,379.429962 588.149109,382.632721 
	C591.560120,385.505554 589.084167,392.083374 589.225708,397.015839 
	C589.434265,404.285400 589.279541,411.565369 589.279541,419.579590 
	C594.557251,417.513641 597.833679,414.169586 600.958618,410.974548 
	C603.750061,408.120392 598.246460,407.497742 598.486511,404.259216 
	C605.343994,403.241272 612.194946,402.717102 618.935730,403.923065 
	C619.621460,406.424469 618.247253,406.941589 616.983521,407.289062 
	C611.646545,408.756653 607.777344,412.507538 603.516907,415.684998 
	C601.177307,417.429871 600.724670,419.216522 602.523987,421.570740 
	C608.471985,429.353363 613.108276,438.121826 620.171204,445.065063 
	C621.059448,445.938293 621.710388,446.864075 621.192017,448.139008 
	C620.737549,449.256714 619.666931,449.330261 618.669434,449.335693 
	C614.837402,449.356659 611.005127,449.331818 607.172974,449.326263 
	C604.609497,449.322510 603.445312,447.451111 602.213013,445.644562 
	C598.389587,440.039001 594.551819,434.443237 590.109741,429.093170 
	C589.776428,435.868500 585.861450,443.310516 594.809998,448.375610 
	C578.423767,449.703796 562.464111,449.359497 545.950806,448.410553 
	C552.390076,445.204010 550.730225,439.819824 550.772583,435.068481 
	C550.821655,429.572662 551.051025,424.039246 550.525452,418.587372 
	C549.846130,411.542053 544.974182,408.809387 539.548950,411.864258 
	C537.295105,413.133331 536.233582,414.923523 536.255920,417.550415 
	C536.322449,425.381256 536.525452,433.224701 536.162537,441.039398 
	C535.988953,444.777039 539.175537,445.371002 540.888062,447.317230 
	C537.929749,449.903015 473.391571,450.364594 468.355072,447.775818 
	C474.103851,444.806915 472.922516,439.585388 472.782806,434.798340 
	C472.598969,428.500122 473.770721,422.097168 471.800201,415.923889 
	C469.928528,410.060211 464.570831,408.756165 460.075836,412.855103 
	C458.571930,414.226501 458.173737,415.879517 458.179230,417.788208 
	C458.201233,425.453003 458.460846,433.131409 458.077698,440.776978 
	C457.887787,444.566437 461.244965,445.442841 463.402710,448.992401 
	C454.518646,449.469147 446.538788,449.611908 437.996155,448.298981 
	C446.656403,444.164093 443.374878,436.782074 443.549652,430.686310 
	C443.888550,418.865662 443.695221,407.027954 443.599030,395.198364 
	C443.583191,393.248749 444.470978,390.737885 441.387268,389.525146 
	C438.069733,393.734741 442.341187,398.492950 440.587769,402.712769 
	C437.594269,403.224854 437.296783,400.771057 436.360443,399.206665 
	C434.048981,395.344727 432.003448,391.237030 427.777161,389.059540 
	C422.242554,386.207886 419.237427,387.987213 419.221710,394.085327 
	C419.183441,408.915009 419.290466,423.745728 419.145599,438.574097 
	C419.105591,442.667816 419.436005,445.957123 424.604126,446.105316 
	C425.419922,446.128784 426.064636,446.841553 426.025787,448.613342 
	C415.994904,448.613342 405.941650,448.613342 395.343933,448.613342 
	C396.017700,447.372955 396.212585,446.618286 396.471130,446.595825 
	C403.739838,445.964050 403.020599,440.795227 402.969788,435.693695 
	C402.832153,421.865051 402.952850,408.034027 402.877563,394.204437 
	C402.866486,392.172150 403.772217,389.490356 401.178925,388.436035 
	C398.607056,387.390442 395.872375,387.886383 393.556335,389.499237 
	C390.186188,391.846069 388.055573,395.202148 386.173798,398.791016 
	C385.253174,400.546814 384.968781,403.125732 382.127747,403.169739 
	C380.245514,401.891846 380.944275,400.160400 381.186707,398.588837 
	C381.617950,395.793579 382.326965,393.033752 382.631897,390.227814 
	C383.565430,381.636597 383.515839,381.578369 392.257843,382.176514 
	C404.906403,383.042053 417.545990,383.037537 430.194458,382.166504 
	C433.610443,381.931274 436.836365,381.657501 440.058594,384.193329 
	C442.201752,385.879944 445.503815,383.935577 448.223419,383.301666 
	C458.165070,380.984528 458.170013,378.999695 458.231750,390.984467 
	C458.257050,395.892303 457.608795,400.857880 458.721832,406.077637 
	C462.383789,405.073822 465.333038,403.111633 468.781494,402.463196 
	C478.520355,400.631927 485.996796,405.924225 487.410431,415.683167 
	C488.588776,423.817383 487.971680,431.982025 488.100739,440.133392 
	C488.149567,443.216217 488.368378,445.896332 492.506165,445.797882 
	C496.566132,445.701294 496.830688,443.034790 496.813049,439.958771 
	C496.771912,432.794037 496.864838,425.628387 496.798065,418.464050 
	C496.761169,414.504486 498.399200,409.590485 491.929291,409.529877 
	C491.764923,406.402466 493.767059,406.362000 495.256287,405.972778 
	C499.280365,404.920990 503.372589,404.123901 507.380585,403.018494 
	C510.949219,402.034271 512.283508,403.277161 512.252686,406.881683 
	C512.158569,417.878235 512.263733,428.876556 512.169617,439.873108 
	C512.140259,443.296783 512.712769,445.888611 516.929504,445.793762 
	C521.158447,445.698639 520.989746,442.681824 521.002808,439.784058 
	C521.035889,432.460022 520.984192,425.134888 521.094604,417.812164 
	C521.153564,413.901550 521.397766,410.036133 515.126709,408.964233 
	C519.655029,404.675293 524.875305,405.463593 529.422302,403.567566 
z"/>
<path fill="#000000" opacity="1.000000" stroke="none" 
	d="
M389.800537,225.442856 
	C394.766541,238.804459 394.380157,251.875244 390.310242,264.957001 
	C389.045166,269.023285 386.891418,272.585999 383.280518,274.998413 
	C381.275391,276.338043 380.856476,278.100403 381.375244,280.192902 
	C385.217957,295.693695 389.075317,311.194122 395.086761,326.044098 
	C396.218536,328.839966 397.522522,331.596527 400.774811,332.585480 
	C402.108307,332.990997 403.383118,333.470825 403.357880,335.155823 
	C403.329285,337.067383 401.775879,337.511444 400.361389,338.013397 
	C391.979004,340.988068 382.966156,336.979614 378.697235,328.446106 
	C375.384003,321.822937 374.074921,314.566528 372.134796,307.525665 
	C370.059113,299.992859 368.495148,292.320282 366.611176,284.732727 
	C365.893738,281.843323 365.121399,278.816254 361.158997,278.809692 
	C359.512817,280.604889 360.065430,282.704498 360.055725,284.610840 
	C359.987122,298.100494 360.053375,311.590912 359.973938,325.080414 
	C359.951904,328.817505 360.338043,332.089020 364.606140,333.402161 
	C366.015625,333.835785 366.777496,335.010010 366.471283,336.528320 
	C366.132050,338.210205 364.703918,338.333374 363.340973,338.341156 
	C355.846863,338.383942 348.352600,338.403473 340.858368,338.424316 
	C339.310303,338.428650 337.730408,338.327209 337.223907,336.503937 
	C336.692841,334.592224 338.072601,333.727448 339.523102,333.225861 
	C343.150513,331.971558 343.958313,329.315704 343.949066,325.788116 
	C343.861725,292.479248 343.851807,259.170105 343.886749,225.861115 
	C343.890198,222.565628 343.238861,219.975082 339.737885,218.791534 
	C338.108307,218.240646 336.599701,217.232773 337.191986,215.135117 
	C337.763794,213.109909 339.627869,213.049606 341.284088,213.033279 
	C351.941681,212.928101 362.617920,212.474609 373.251801,212.948517 
	C381.034943,213.295410 386.399750,218.036713 389.800537,225.442856 
M370.459412,269.320923 
	C372.317108,268.352295 373.665833,266.815582 374.370178,264.933929 
	C379.019104,252.514694 379.550171,239.958374 375.034363,227.397095 
	C373.877258,224.178375 371.561096,221.735306 368.101715,220.689514 
	C362.853821,219.103043 360.086578,221.012939 360.051483,226.455078 
	C359.977448,237.932220 359.976959,249.410217 360.018890,260.887573 
	C360.046448,268.434235 362.101685,270.222076 370.459412,269.320923 
z"/>
<path fill="#000000" opacity="1.000000" stroke="none" 
	d="
M110.856842,214.822739 
	C119.321037,219.301666 124.097534,226.395401 127.176964,234.720291 
	C133.918182,252.944443 134.088623,271.843414 132.694931,290.898895 
	C131.922882,301.454956 129.981857,311.687714 125.269447,321.262024 
	C119.579941,332.821442 110.655136,338.814087 97.407997,338.539246 
	C89.439880,338.373932 81.449623,338.750153 73.470154,338.377808 
	C71.804192,338.300079 69.919640,338.455231 69.392326,336.354248 
	C68.833595,334.128082 70.666618,333.473633 72.214890,332.928101 
	C75.267075,331.852844 76.045334,329.546265 76.042343,326.642242 
	C76.007477,292.822113 75.966965,259.001984 76.000114,225.181915 
	C76.003342,221.888214 74.661552,219.852249 71.652122,218.689148 
	C70.160492,218.112656 69.088379,217.020981 69.328972,215.262207 
	C69.512634,213.919678 70.572182,213.183914 71.808357,213.209564 
	C84.713104,213.477386 97.734604,210.755997 110.856842,214.822739 
M92.215424,258.499756 
	C92.219124,279.630096 92.225639,300.760406 92.223213,321.890747 
	C92.222885,324.779297 92.192566,327.818237 95.299728,329.213135 
	C98.715607,330.746582 102.134567,330.315247 105.208298,328.062256 
	C107.403816,326.452972 109.023796,324.323334 110.147804,321.882782 
	C112.382027,317.031708 113.924416,311.939606 114.741112,306.665131 
	C117.071114,291.617340 116.551292,276.479034 115.607887,261.385468 
	C114.953491,250.915894 113.030258,240.598938 108.650230,230.918060 
	C107.132416,227.563339 105.464409,224.268280 102.131592,222.310562 
	C96.520485,219.014557 92.312622,221.249725 92.276253,227.551346 
	C92.218636,237.533981 92.232285,247.517014 92.215424,258.499756 
z"/>
<path fill="#000000" opacity="1.000000" stroke="none" 
	d="
M76.022530,87.000061 
	C76.015678,78.508385 75.925606,70.515579 76.037712,62.525612 
	C76.084747,59.173271 75.205269,56.636124 71.794823,55.495419 
	C70.235397,54.973827 69.012131,54.024940 69.295464,52.265900 
	C69.643013,50.108231 71.548225,50.042637 73.210014,50.020893 
	C83.197220,49.890221 93.192146,49.549953 103.170570,49.811237 
	C110.635963,50.006714 116.370781,54.044399 120.759697,59.897030 
	C127.125664,68.386055 130.093994,78.264969 131.595612,88.560089 
	C134.303040,107.122444 134.352921,125.679489 130.165802,144.074860 
	C128.569138,151.089554 126.053162,157.782440 121.884415,163.742340 
	C116.753479,171.077820 109.557007,174.896606 100.757858,175.228088 
	C91.779755,175.566330 82.779770,175.341934 73.789452,175.322052 
	C71.984161,175.318069 69.874100,175.522552 69.379227,173.089233 
	C68.936462,170.912079 70.682167,170.222977 72.276436,169.693756 
	C76.234467,168.379868 76.076828,165.142456 76.073738,161.920807 
	C76.049980,137.113892 76.037170,112.306984 76.022530,87.000061 
M116.561661,116.777214 
	C116.400864,113.452545 116.196884,110.129311 116.086983,106.802963 
	C115.678558,94.442200 114.262482,82.255302 109.903656,70.573013 
	C108.377762,66.483398 106.505318,62.573898 103.072853,59.699406 
	C100.421906,57.479378 97.339424,56.993744 94.169182,58.311661 
	C91.256531,59.522495 92.271896,62.310577 92.266937,64.464996 
	C92.194916,95.777481 92.216293,127.090172 92.195236,158.402802 
	C92.193054,161.649933 92.123352,165.039612 95.798668,166.409637 
	C99.490555,167.785843 103.039711,167.055862 106.037743,164.381546 
	C108.850128,161.872818 110.445557,158.617630 111.719780,155.124634 
	C116.142250,143.001465 116.073471,130.311218 116.561661,116.777214 
z"/>
<path fill="#000000" opacity="1.000000" stroke="none" 
	d="
M389.725708,61.468719 
	C397.368530,78.681595 396.922668,95.854164 390.890686,112.877373 
	C386.942841,124.018799 376.187134,129.198425 364.697418,126.126175 
	C360.721802,125.063110 360.019501,126.556519 360.035461,129.909393 
	C360.087708,140.896637 360.089722,151.884674 360.010223,162.871658 
	C359.986084,166.207825 360.837494,168.716705 364.380615,169.765045 
	C365.994598,170.242569 367.634674,171.067581 367.199829,173.239197 
	C366.756653,175.452454 364.869080,175.317566 363.221863,175.324844 
	C355.896851,175.357162 348.571564,175.352661 341.246460,175.331192 
	C339.577972,175.326309 337.689331,175.390533 337.186890,173.296768 
	C336.673401,171.156723 338.366760,170.329132 339.958588,169.788681 
	C343.257629,168.668625 343.900513,166.208664 343.897156,163.106049 
	C343.861023,129.643555 343.856689,96.180946 343.919617,62.718517 
	C343.926270,59.189125 343.040253,56.527397 339.406189,55.327881 
	C337.823151,54.805363 336.812408,53.694942 337.290375,51.919258 
	C337.708710,50.365017 339.133026,50.067463 340.486176,50.055668 
	C351.636322,49.958443 362.805756,49.490959 373.930542,49.993958 
	C381.082245,50.317314 386.007629,55.069237 389.725708,61.468719 
M378.961273,81.659920 
	C378.952515,75.918884 377.486115,70.475975 375.434265,65.184853 
	C374.275360,62.196316 372.596924,59.520741 369.510345,58.095943 
	C363.768311,55.445354 360.013702,57.666267 360.001221,63.835770 
	C359.970245,79.125160 360.057007,94.414833 360.004913,109.704086 
	C359.991821,113.542915 361.554199,115.992790 365.234650,117.184509 
	C368.975067,118.395638 371.710266,116.950989 373.949615,114.103416 
	C375.519806,112.106850 376.197174,109.680527 377.024658,107.330856 
	C379.864502,99.267006 378.735260,90.888985 378.961273,81.659920 
z"/>
<path fill="#000000" opacity="1.000000" stroke="none" 
	d="
M550.478760,338.770203 
	C546.661987,340.686584 543.512939,341.596191 543.353027,336.184448 
	C541.660645,335.921204 541.123535,336.913696 540.371216,337.499969 
	C533.282471,343.024506 525.225403,341.805878 519.604248,334.215790 
	C514.072571,326.746460 512.042603,318.006470 511.013458,309.007355 
	C509.488953,295.676758 510.041962,282.453003 513.724854,269.465363 
	C514.132324,268.028259 514.623962,266.609375 515.165955,265.216858 
	C520.458923,251.617996 527.419495,248.302078 541.475952,253.165405 
	C542.606018,247.023819 541.987610,240.921310 541.979187,234.898422 
	C541.973145,230.546555 543.571472,225.619141 537.826965,222.764404 
	C535.720459,221.717575 536.892273,219.121201 539.038269,218.071625 
	C543.965454,215.661774 548.903076,213.257217 553.943726,211.101105 
	C557.373535,209.634048 557.425476,212.216675 557.425842,214.522980 
	C557.427551,225.332047 557.411865,236.141129 557.405823,246.950195 
	C557.392395,270.911804 557.376892,294.873413 557.373718,318.835022 
	C557.373291,322.127808 556.832397,325.242035 561.749878,326.288086 
	C564.957275,326.970367 563.875000,330.139618 561.776550,331.667603 
	C558.291931,334.204956 554.490967,336.307831 550.478760,338.770203 
M533.984558,327.432251 
	C539.026306,328.957092 542.626343,325.689819 542.708252,318.964783 
	C542.862427,306.318604 542.883118,293.666748 542.671021,281.022125 
	C542.584656,275.871643 541.644531,270.752747 539.231201,266.064728 
	C538.050354,263.770935 536.522461,261.594482 533.679626,261.671753 
	C530.887756,261.747650 529.184082,263.853943 528.234680,266.228210 
	C527.318787,268.518829 526.694031,270.977631 526.309998,273.420502 
	C524.459167,285.192719 525.159424,297.006653 526.534180,308.733307 
	C527.299194,315.259430 528.189941,322.039764 533.984558,327.432251 
z"/>
<path fill="#000000" opacity="1.000000" stroke="none" 
	d="
M267.114746,86.992065 
	C270.958191,86.920670 273.848114,88.696625 276.861115,90.020401 
	C278.793793,88.171722 278.573639,85.934868 278.599670,83.848022 
	C278.668182,78.354576 278.609894,72.859505 278.598236,67.365097 
	C278.591980,64.426064 278.192017,62.024261 274.865875,60.549477 
	C271.994781,59.276463 272.269623,56.595642 274.925598,55.176083 
	C279.759705,52.592335 284.751740,50.261379 289.822540,48.176758 
	C293.813263,46.536152 293.318054,49.861835 293.332306,52.042805 
	C293.422699,65.861862 293.451904,79.681503 293.450043,93.500946 
	C293.447235,114.479980 293.394623,135.459015 293.384399,156.438049 
	C293.382904,159.537369 292.699097,162.537109 297.821198,162.932846 
	C300.853516,163.167130 300.257721,166.639359 298.168365,168.275635 
	C293.842468,171.663483 289.037109,174.336090 284.034454,176.668243 
	C280.776611,178.186996 280.172455,175.302689 278.829102,173.819443 
	C278.344177,173.854370 277.964142,173.772995 277.709869,173.915680 
	C266.318115,180.307999 258.925903,178.326843 252.868500,166.615646 
	C246.722916,154.733978 245.845001,141.666153 246.315552,128.668243 
	C246.662689,119.079414 247.744812,109.381584 251.895020,100.451782 
	C254.926407,93.929367 258.788269,88.197754 267.114746,86.992065 
M261.573029,118.040184 
	C260.743469,126.719643 261.769745,135.353851 262.456573,143.970810 
	C262.877380,149.250397 263.781067,154.570068 266.305389,159.381454 
	C267.786743,162.204926 269.376526,165.483292 273.248077,164.688385 
	C277.015015,163.914978 278.040222,160.442520 278.718628,157.086380 
	C278.881317,156.281555 278.816589,155.426086 278.817291,154.593887 
	C278.827606,142.766739 278.928558,130.938461 278.793243,119.112923 
	C278.730133,113.598358 277.856903,108.148361 275.375092,103.124664 
	C274.164276,100.673775 272.500885,98.323700 269.407562,98.570137 
	C266.630493,98.791367 265.219757,101.065140 264.210693,103.443481 
	C262.356079,107.814682 262.149292,112.500404 261.573029,118.040184 
z"/>
<path fill="#000000" opacity="1.000000" stroke="none" 
	d="
M246.687241,287.844025 
	C247.612442,278.098328 248.732788,268.845764 253.463974,260.527313 
	C259.144318,250.540115 264.983521,248.520706 275.723297,252.686386 
	C276.158264,252.855087 276.676208,252.809753 277.723145,252.928513 
	C279.191376,244.302628 278.833893,235.742691 278.117096,227.179703 
	C277.980164,225.543655 276.636108,224.821045 275.333679,223.942703 
	C272.000458,221.694855 272.222229,219.548538 275.850739,217.812256 
	C279.900970,215.874176 284.017944,214.076080 288.088562,212.179901 
	C292.440857,210.152512 293.323730,210.622269 293.345734,215.504730 
	C293.412537,230.320297 293.394318,245.136292 293.387787,259.952118 
	C293.379089,279.762268 293.360657,299.572418 293.319641,319.382507 
	C293.312927,322.616272 293.043823,325.577606 297.561951,326.464600 
	C300.254639,326.993164 299.855011,329.657227 298.156586,331.165161 
	C293.901306,334.943146 288.955383,337.748566 283.718536,339.924469 
	C280.403595,341.301819 280.029388,338.296753 279.227112,336.254883 
	C278.803558,336.254883 278.352173,336.116791 278.191589,336.274628 
	C269.026428,345.281342 258.280548,340.308411 253.543961,331.034637 
	C246.664764,317.565887 245.569214,303.089294 246.687241,287.844025 
M278.659210,279.030701 
	C277.888550,274.622406 277.479309,270.113708 275.298737,266.079742 
	C274.084290,263.832977 272.570190,261.597900 269.768250,261.621674 
	C266.705597,261.647644 265.266907,264.097931 264.160156,266.602386 
	C263.761566,267.504425 263.517090,268.485016 263.288849,269.450256 
	C260.136658,282.780365 261.293457,296.176300 262.791107,309.558777 
	C263.308563,314.182861 264.243073,318.765961 266.455170,322.930786 
	C267.851166,325.559143 269.351440,328.774231 272.908722,328.185669 
	C276.650665,327.566589 277.905457,324.168915 278.656433,320.800354 
	C278.834747,320.000519 278.813904,319.146820 278.813049,318.317932 
	C278.799652,305.525665 278.774445,292.733398 278.659210,279.030701 
z"/>
<path fill="#000000" opacity="1.000000" stroke="none" 
	d="
M505.767242,134.547150 
	C505.318787,141.181808 504.187012,147.218643 501.967163,153.004135 
	C496.590668,167.016785 488.590515,170.666626 474.239502,165.197418 
	C473.742065,172.462784 473.795288,179.520966 474.328186,186.574982 
	C474.483459,188.630386 476.322144,189.490692 477.935638,190.403336 
	C479.028900,191.021698 479.703186,191.952316 479.392303,193.288727 
	C479.069427,194.676575 477.928711,195.090515 476.730103,195.097855 
	C469.738892,195.140762 462.747162,195.136795 455.755920,195.096680 
	C454.522522,195.089600 453.451996,194.557571 453.144135,193.212616 
	C452.836609,191.869034 453.545563,190.855118 454.671997,190.379013 
	C458.489044,188.765747 458.726807,185.565430 458.720062,182.076370 
	C458.671783,157.102722 458.670776,132.128952 458.675079,107.155220 
	C458.675659,103.797485 458.993378,100.702957 454.670013,99.099297 
	C451.896271,98.070419 452.569244,95.367561 455.033691,94.224205 
	C460.009064,91.915916 465.161377,89.987625 470.249115,87.923294 
	C473.388000,86.649689 473.375061,90.121353 474.923889,91.144043 
	C475.331329,91.095772 475.711487,91.155235 475.969727,91.005096 
	C487.094696,84.537224 494.844727,86.655739 500.510223,98.460709 
	C505.901367,109.694000 506.696136,121.816780 505.767242,134.547150 
M473.348175,109.181763 
	C473.334808,118.315826 473.294098,127.449966 473.318359,136.583923 
	C473.332581,141.937958 474.099152,147.200470 476.196899,152.146439 
	C477.373779,154.921173 478.984802,157.739838 482.558624,157.636444 
	C486.091522,157.534225 487.508728,154.697296 488.713074,151.880844 
	C489.102783,150.969498 489.461243,150.010834 489.618134,149.038956 
	C491.838745,135.280716 491.697357,121.609550 487.707489,108.156677 
	C486.636780,104.546700 484.860260,101.185890 480.380890,101.113174 
	C475.638550,101.036194 474.629333,104.844521 473.348175,109.181763 
z"/>
<path fill="#000000" opacity="1.000000" stroke="none" 
	d="
M420.902283,176.242920 
	C410.686615,179.498474 403.833374,175.367462 401.805969,165.319916 
	C400.299774,157.855423 400.460114,150.457306 401.887085,143.028625 
	C403.860168,132.756851 410.580109,127.020004 419.954315,123.492554 
	C422.964417,122.359863 427.578033,122.558739 427.828674,117.837929 
	C428.182861,111.167244 428.346161,104.258789 423.215240,99.036797 
	C419.945038,95.708534 415.039642,97.645096 414.208282,102.302788 
	C413.704468,105.125145 414.304504,107.928696 414.718994,110.739594 
	C415.709106,117.453949 413.096527,122.657997 408.854248,122.723274 
	C405.016571,122.782326 401.771484,117.724327 402.112671,111.443665 
	C402.643799,101.666733 405.394501,93.066040 415.350708,88.627357 
	C424.224518,84.671265 434.283630,88.000694 438.936615,96.571732 
	C443.045197,104.139870 443.833923,112.432930 443.948608,120.781906 
	C444.129333,133.941315 443.924042,147.105820 444.068756,160.266129 
	C444.100952,163.193069 442.876678,167.393982 449.082550,165.832123 
	C451.597260,165.199219 451.306702,168.489838 450.371857,170.329910 
	C448.186584,174.631317 444.706940,177.276840 439.800232,177.676529 
	C434.950745,178.071564 432.606873,174.996841 430.952087,171.041473 
	C430.707855,170.457794 430.285187,169.948761 429.682678,168.985794 
	C426.919769,171.673828 424.698669,174.675293 420.902283,176.242920 
M417.259949,137.972702 
	C414.268616,143.378601 414.731476,149.202850 415.338287,154.993454 
	C415.699219,158.437393 417.509857,161.220093 421.153961,161.441269 
	C424.984528,161.673767 427.928802,158.904510 428.176788,155.578751 
	C428.760040,147.756638 428.363617,139.861465 428.363617,131.673050 
	C423.633270,132.280106 420.251740,134.052643 417.259949,137.972702 
z"/>
<path fill="#000000" opacity="1.000000" stroke="none" 
	d="
M499.953369,300.000183 
	C499.963715,307.993652 499.906006,315.487885 499.995728,322.980377 
	C500.073242,329.451019 500.181000,329.483368 506.107208,329.042267 
	C507.375580,333.331726 504.769073,337.645844 499.479889,340.011444 
	C494.126129,342.405914 490.804962,340.662231 485.960968,332.837769 
	C483.651855,333.266510 482.650665,335.403992 481.082001,336.762024 
	C472.399811,344.278412 462.102509,341.651031 458.665558,330.754761 
	C455.454712,320.575348 456.072021,310.350677 459.901154,300.455292 
	C462.386963,294.031311 467.508087,290.219849 473.869934,287.737671 
	C485.210358,283.313049 486.243561,281.026886 482.875519,269.027710 
	C482.342316,267.128174 481.656525,265.178833 480.592682,263.544464 
	C479.281281,261.529785 477.317993,260.193085 474.653473,260.795715 
	C471.839172,261.432220 470.489136,263.373505 470.133240,266.100342 
	C469.782990,268.784058 470.392578,271.395386 470.762085,274.034821 
	C471.648865,280.368652 469.203979,285.544739 465.266327,285.930634 
	C461.457550,286.303894 457.988831,281.407623 458.146027,275.017761 
	C458.334656,267.349915 460.085724,260.146057 466.357422,254.862488 
	C476.085663,246.667053 489.717377,249.366455 495.487183,260.679535 
	C498.903259,267.377625 499.642822,274.680206 499.913910,282.016266 
	C500.128998,287.836731 499.952148,293.671692 499.953369,300.000183 
M481.524719,295.322876 
	C472.695312,297.952515 469.760010,304.303558 471.219940,317.354858 
	C471.657776,321.268646 473.182953,324.953033 477.823029,324.575897 
	C482.191254,324.220795 484.480591,320.873810 484.629883,316.614227 
	C484.851562,310.289978 484.689087,303.952087 484.679688,297.620026 
	C484.677277,295.981628 484.517151,294.462799 481.524719,295.322876 
z"/>
<path fill="#000000" opacity="1.000000" stroke="none" 
	d="
M196.633606,262.915222 
	C202.636597,251.434509 213.375046,247.060638 223.325333,252.136078 
	C232.102905,256.613342 234.238724,265.178619 235.224228,273.947266 
	C236.828323,288.219879 235.771286,302.576660 236.005630,316.895142 
	C236.043808,319.226959 236.089035,321.558655 236.126678,323.890472 
	C236.190475,327.841003 236.280258,331.756592 241.896133,328.445953 
	C243.671082,332.866943 241.496292,336.994049 236.390732,339.670624 
	C230.677399,342.665741 227.272873,341.069702 221.901215,332.803345 
	C219.540100,333.503571 218.471313,335.785889 216.698502,337.197693 
	C208.054062,344.081787 198.250549,341.540619 194.849777,331.071106 
	C191.387070,320.410889 191.941849,309.657776 196.402130,299.361542 
	C199.064713,293.215179 204.410110,289.821655 210.534302,287.449860 
	C221.264771,283.294159 222.601517,280.397980 219.181396,269.213074 
	C218.602173,267.318787 217.853287,265.403564 216.793716,263.746826 
	C215.380112,261.536530 213.253998,260.072540 210.457886,260.756989 
	C207.698624,261.432434 206.290894,263.562744 206.157257,266.259247 
	C206.051697,268.389343 206.378006,270.563232 206.709030,272.687042 
	C207.150940,275.522461 207.359528,278.323853 206.366928,281.071930 
	C205.404526,283.736450 203.835007,285.970306 200.720154,285.920013 
	C197.850037,285.873688 196.439651,283.751740 195.460495,281.274475 
	C193.020752,275.101807 194.337296,269.170990 196.633606,262.915222 
M212.431564,297.881317 
	C205.618439,303.147125 207.020065,310.600067 207.356247,317.653992 
	C207.525681,321.209290 209.234055,324.378418 213.221710,324.595673 
	C217.346237,324.820435 220.119476,321.727509 220.386276,318.224731 
	C220.972046,310.534271 220.567871,302.768402 220.567871,294.972382 
	C217.277649,294.852417 215.288071,296.527863 212.431564,297.881317 
z"/>
<path fill="#000000" opacity="1.000000" stroke="none" 
	d="
M219.205048,106.069832 
	C218.142380,103.740616 217.445786,101.639305 216.237976,99.891205 
	C214.832489,97.857025 212.650574,96.790825 210.114136,97.583176 
	C207.661285,98.349419 206.377197,100.226822 206.071716,102.779686 
	C205.789780,105.135796 206.172668,107.424576 206.672043,109.713242 
	C207.364883,112.888580 207.224670,116.012062 205.864807,119.006294 
	C204.903290,121.123489 203.371704,122.614540 200.916504,122.594070 
	C198.506836,122.573990 196.950592,121.155930 195.865417,119.086479 
	C189.018616,106.029503 200.173737,87.084930 214.848969,87.033943 
	C222.347977,87.007889 227.866653,90.494919 231.344482,97.196709 
	C234.899261,104.046776 235.820343,111.471664 235.920197,119.000023 
	C236.101379,132.659317 236.026901,146.321869 236.100113,159.982819 
	C236.121414,163.957886 235.675552,168.551468 242.095886,165.646317 
	C243.561768,170.249817 240.822678,174.706833 235.557037,176.770096 
	C229.588837,179.108612 226.056488,177.107468 222.339127,169.207596 
	C220.362320,169.183685 219.816452,171.066849 218.726639,172.122940 
	C214.393356,176.322189 209.426941,178.786835 203.357132,177.172272 
	C197.635544,175.650299 195.446075,170.723709 194.118088,165.651810 
	C192.059448,157.789352 192.393051,149.799896 194.265228,141.922714 
	C196.308640,133.325043 201.635101,127.710175 209.912598,124.503349 
	C220.882263,120.253532 220.821930,120.091316 219.679642,108.420494 
	C219.615051,107.760376 219.458694,107.109245 219.205048,106.069832 
M211.695587,135.187592 
	C205.776627,140.744583 206.984940,147.926498 207.379227,154.834412 
	C207.574493,158.255478 209.386917,161.156937 213.034073,161.434418 
	C217.090393,161.743011 220.097916,158.876709 220.373032,155.311966 
	C220.966995,147.616348 220.555710,139.843140 220.555710,132.065750 
	C216.990036,131.622803 214.709137,133.407028 211.695587,135.187592 
z"/>
<path fill="#000000" opacity="1.000000" stroke="none" 
	d="
M527.978210,175.263046 
	C520.786682,170.397903 517.285583,163.489395 515.271179,155.772964 
	C510.391022,137.079010 510.616119,118.620117 518.526306,100.667969 
	C519.390320,98.707108 520.542053,96.828743 521.815186,95.099663 
	C529.886536,84.137154 542.849609,84.305534 550.473328,95.554665 
	C557.187622,105.461952 558.572510,116.841446 558.964294,128.414276 
	C559.074951,131.681656 556.990723,133.113022 553.981812,133.548157 
	C546.746033,134.594559 539.529846,135.793243 532.276184,136.692459 
	C528.498230,137.160797 527.199097,138.639542 527.907410,142.588486 
	C529.027832,148.835022 530.110657,155.057388 533.346985,160.601700 
	C537.161377,167.136292 543.327515,167.585495 548.534729,162.017578 
	C551.173828,159.195648 551.906006,155.216904 554.445618,152.362366 
	C558.105957,154.869904 557.678894,159.754211 553.302612,167.710770 
	C547.858459,177.608841 539.327637,180.252213 527.978210,175.263046 
M535.234985,126.683662 
	C536.695862,126.373672 538.146240,125.870872 539.619690,125.789986 
	C543.969604,125.551208 545.354797,123.183647 544.789551,119.155388 
	C544.098267,114.228294 543.751404,109.219315 541.792664,104.573517 
	C540.466248,101.427536 539.538696,97.318855 535.175720,97.532036 
	C531.233276,97.724663 530.254333,101.492416 529.147156,104.630264 
	C527.408325,109.558388 527.350464,114.729103 527.061035,119.863098 
	C526.622314,127.645256 526.760559,127.777969 535.234985,126.683662 
z"/>
<path fill="#000000" opacity="1.000000" stroke="none" 
	d="
M161.711578,250.504028 
	C168.404297,249.380219 173.210938,252.191010 176.908249,256.819397 
	C185.137543,267.121033 187.006119,279.348541 186.883667,292.071777 
	C186.850479,295.519684 184.472412,296.414368 181.588989,296.825836 
	C174.674850,297.812439 167.789688,299.023987 160.858490,299.860352 
	C157.075104,300.316925 155.639023,302.000763 156.081161,305.780426 
	C156.763855,311.616547 158.003662,317.299408 160.669144,322.537048 
	C164.948212,330.945282 173.069336,331.254425 178.178024,323.250031 
	C179.761154,320.769592 181.005722,318.073120 182.433975,315.422272 
	C185.828751,316.340729 185.393982,318.735535 184.972870,320.716492 
	C183.928238,325.630554 182.199066,330.344025 179.071289,334.347076 
	C172.143677,343.213196 158.829605,343.163391 151.160095,334.359650 
	C145.111633,327.416687 142.743362,318.903534 141.363754,310.165863 
	C139.129883,296.017670 139.738190,281.953186 144.639099,268.338440 
	C147.610901,260.082794 152.025833,252.993774 161.711578,250.504028 
M172.119385,276.442505 
	C171.426224,272.841858 170.731201,269.234680 169.158310,265.889069 
	C168.022354,263.472809 166.902206,260.623413 163.798218,260.589081 
	C160.515701,260.552795 158.974625,263.330505 157.895615,265.976868 
	C155.726471,271.296844 155.254593,276.930878 155.205750,282.633667 
	C155.133606,291.053650 155.081100,291.053192 163.139893,289.756775 
	C173.556625,288.081055 173.580154,288.048981 172.119385,276.442505 
z"/>
<path fill="#000000" opacity="1.000000" stroke="none" 
	d="
M436.194214,339.569153 
	C426.725677,342.471344 419.506409,340.144287 413.823029,332.693787 
	C410.642395,328.524200 408.534760,323.821442 407.229370,318.805237 
	C402.763458,301.644165 402.837921,284.565216 408.854797,267.751740 
	C411.384155,260.683807 415.249329,254.530945 422.645569,251.524857 
	C429.148071,248.882004 435.687103,250.490616 440.520172,256.365723 
	C449.037354,266.719177 450.684967,279.202820 450.881683,292.016815 
	C450.928101,295.042084 448.884552,296.232269 446.033539,296.632782 
	C438.624481,297.673645 431.257904,299.033997 423.836212,299.961273 
	C419.782074,300.467804 418.850464,302.349854 419.772461,306.056549 
	C421.173706,311.690094 421.743378,317.553101 424.673462,322.737793 
	C429.329102,330.975739 435.699005,331.467896 441.501984,324.045349 
	C442.951721,322.190948 444.049774,320.167480 444.882324,317.966187 
	C445.344879,316.743225 445.925781,315.173370 447.623535,315.729095 
	C449.382416,316.304840 449.463318,318.119812 449.128784,319.553131 
	C447.248535,327.608459 444.890869,335.416412 436.194214,339.569153 
M426.294800,260.927887 
	C419.988068,265.047394 419.641785,271.722565 419.372284,278.137817 
	C418.773224,292.396301 419.701141,292.934082 433.386383,288.616974 
	C435.873749,287.832306 436.790192,286.480957 436.809998,283.940796 
	C436.864258,276.987366 435.193176,270.449066 432.256165,264.231903 
	C431.270752,262.145874 429.897614,260.081726 426.294800,260.927887 
z"/>
<path fill="#000000" opacity="1.000000" stroke="none" 
	d="
M184.964035,157.710892 
	C183.868256,161.805588 182.667831,165.420715 180.667160,168.740067 
	C174.322159,179.267181 160.742294,180.870483 152.140244,172.025620 
	C144.503983,164.173798 142.094589,154.084015 141.020950,143.762238 
	C139.884155,132.833145 139.960831,121.823547 142.840179,111.051094 
	C144.839447,103.571236 147.467056,96.400665 153.723389,91.285973 
	C161.468140,84.954483 170.296265,85.636009 176.654037,93.343559 
	C185.195770,103.698723 186.874008,116.163567 186.853180,129.020508 
	C186.848053,132.187561 184.516235,133.074631 181.816650,133.473465 
	C174.581924,134.542328 167.369629,135.770401 160.123672,136.752625 
	C156.379044,137.260239 155.026871,138.690567 155.896179,142.721497 
	C157.019333,147.929413 157.770081,153.221786 160.017029,158.092361 
	C161.791809,161.939392 163.982132,165.616974 168.911972,165.803619 
	C173.709412,165.985260 176.364243,162.750366 178.778946,159.206833 
	C180.250107,157.047897 180.549469,154.167694 182.870041,152.452682 
	C185.590637,153.250458 185.120895,155.371307 184.964035,157.710892 
M155.217255,120.403999 
	C155.873749,122.817390 153.380890,127.087273 157.575760,127.290192 
	C161.932343,127.500946 166.394257,125.961494 170.775558,125.025658 
	C172.555573,124.645447 172.820084,123.045433 172.797852,121.453354 
	C172.701721,114.568954 171.743820,107.854668 168.656860,101.605682 
	C167.621780,99.510361 166.485916,97.288681 163.653793,97.366592 
	C160.728531,97.447060 159.286438,99.563477 158.273560,101.928345 
	C155.876572,107.524750 155.029297,113.414604 155.217255,120.403999 
z"/>
<path fill="#000000" opacity="1.000000" stroke="none" 
	d="
M301.244751,407.003235 
	C301.226196,419.997803 301.228729,432.493134 301.164581,444.988068 
	C301.153870,447.074799 301.693939,449.699890 298.973450,450.512909 
	C296.437225,451.270874 295.033600,449.156494 293.772430,447.428009 
	C282.874451,432.492065 272.024750,417.520905 261.153198,402.565704 
	C260.182709,401.230713 259.159271,399.934265 258.211853,398.687531 
	C256.781555,398.921234 257.080841,399.907898 257.078461,400.630798 
	C257.037262,413.125092 257.058167,425.619690 256.983948,438.113739 
	C256.962708,441.683289 258.151276,444.226593 261.787903,445.336243 
	C263.123383,445.743774 264.872955,445.933197 264.766266,448.913544 
	C257.529419,449.553314 250.293213,449.873444 243.077393,448.710632 
	C243.077393,447.707062 243.028046,447.421478 243.084366,447.398834 
	C251.554581,443.994568 250.993408,436.850769 250.816284,429.571472 
	C250.548889,418.582123 250.548447,407.576691 250.823532,396.587860 
	C250.954422,391.359344 250.091049,387.328064 244.300369,385.960541 
	C243.793915,385.840912 243.435455,385.094635 243.089813,384.726349 
	C243.715179,382.433929 245.427887,382.829987 246.825272,382.745453 
	C264.954865,381.649139 264.950897,381.659760 275.782318,396.578156 
	C280.675446,403.317566 285.550537,410.070862 290.527893,416.747681 
	C291.555115,418.125610 292.202087,420.008270 294.725769,420.650055 
	C294.725769,411.009033 294.772675,401.582855 294.694244,392.157745 
	C294.673523,389.668152 292.727936,388.493256 290.785980,387.386749 
	C289.303406,386.542053 287.112457,386.522308 286.481934,383.129883 
	C294.081390,382.504608 301.368805,382.505737 308.769104,383.106934 
	C308.637054,384.450806 308.691803,385.011322 308.561676,385.058167 
	C300.689941,387.890869 300.737305,394.329865 301.207397,401.007507 
	C301.335754,402.831421 301.237671,404.671326 301.244751,407.003235 
z"/>
<path fill="#000000" opacity="1.000000" stroke="none" 
	d="
M584.470703,155.047058 
	C584.510132,157.229630 584.603882,159.060303 584.546814,160.886246 
	C584.427795,164.698166 584.815002,168.232407 588.652527,170.335709 
	C589.744995,170.934494 590.408447,171.952927 590.092773,173.255219 
	C589.727112,174.763443 588.564453,175.402588 587.102112,175.401016 
	C580.438538,175.393890 573.774780,175.360291 567.111450,175.302536 
	C565.710083,175.290405 564.430115,174.912704 564.038696,173.315399 
	C563.649963,171.728729 564.606567,170.788681 565.810059,170.085999 
	C568.960144,168.246750 569.656677,165.315445 569.651123,161.967865 
	C569.620911,143.808197 569.618286,125.648483 569.629211,107.488808 
	C569.630981,104.546165 569.371338,102.108391 566.042603,100.591797 
	C562.850647,99.137558 563.225891,96.468246 566.108215,94.938660 
	C570.805725,92.445740 575.707886,90.324585 580.587280,88.192062 
	C585.582581,86.008904 583.359009,91.967514 586.024658,92.997910 
	C587.851440,91.654938 589.752380,90.073982 591.826782,88.768867 
	C596.847168,85.610252 601.641541,86.792358 604.517090,91.950043 
	C607.945557,98.099419 608.015259,104.685417 606.510620,111.354042 
	C605.922607,113.960480 604.461060,116.100746 601.463623,116.028610 
	C598.470154,115.956566 597.208069,113.639297 596.541931,111.127556 
	C596.077759,109.377274 596.007141,107.519020 595.803528,105.704201 
	C595.586853,103.772095 595.006958,102.032494 592.925598,101.472404 
	C590.884155,100.923065 589.404480,102.086082 588.155640,103.519569 
	C584.826599,107.340950 584.683777,112.103035 584.620239,116.744720 
	C584.447205,129.392532 584.495850,142.043381 584.470703,155.047058 
z"/>
<path fill="#000000" opacity="1.000000" stroke="none" 
	d="
M355.756104,433.207336 
	C352.720520,443.709412 345.852234,449.221100 335.593842,450.468628 
	C325.955505,451.640808 317.159912,449.750183 311.268707,441.290009 
	C305.194580,432.567139 305.193726,423.044159 309.831573,413.789612 
	C314.495789,404.482513 326.931763,400.096191 338.540497,402.991730 
	C349.447144,405.712128 356.054291,413.801697 356.247833,424.831085 
	C356.294373,427.482574 356.002716,430.139954 355.756104,433.207336 
M341.300720,427.816772 
	C341.231537,422.032166 340.091583,416.510956 336.363647,411.938416 
	C332.560516,407.273560 327.204834,407.368317 324.193695,411.885315 
	C319.867981,418.374329 321.640961,436.036194 327.233704,441.634003 
	C329.302521,443.704681 331.658142,445.188965 334.816193,444.350159 
	C338.102631,443.477203 339.907288,441.066986 340.495361,438.007965 
	C341.087250,434.929138 341.033386,431.726196 341.300720,427.816772 
z"/>
<path fill="#000000" opacity="1.000000" stroke="none" 
	d="
M505.570007,381.322388 
	C511.408447,383.749603 513.717773,387.107880 512.536560,391.486969 
	C511.444366,395.535980 508.857269,398.164795 504.422974,398.228973 
	C499.941284,398.293854 497.278687,395.669281 496.286285,391.597809 
	C495.255188,387.367493 497.218475,384.192596 500.874847,382.068604 
	C502.179352,381.310883 503.661560,381.028564 505.570007,381.322388 
z"/>
</svg>